<svg width="20" height="20" viewBox="0 0 20 20" fill="none" xmlns="http://www.w3.org/2000/svg">
<path d="M9.53125 1.54639C9.69248 1.16344 10.2242 1.13903 10.4316 1.47412L10.4688 1.54639L12.4971 6.36475C12.6882 6.81841 13.0884 7.14358 13.5605 7.24756L13.7676 7.27881L19.0332 7.6958C19.4626 7.72983 19.6333 8.21519 19.3799 8.50635L19.3242 8.56104L15.3115 11.9565C14.9357 12.2746 14.7438 12.7533 14.79 13.2349L14.8242 13.4419L16.0508 18.5181C16.1502 18.93 15.6892 19.2915 15.291 19.0513H15.29L10.7832 16.3315C10.3623 16.0776 9.84675 16.0452 9.40234 16.2358L9.2168 16.3315L4.70898 19.0513C4.33552 19.2766 3.90726 18.9727 3.9375 18.5942L3.94922 18.5181L5.17578 13.4419C5.29158 12.9624 5.16046 12.4629 4.83789 12.1021L4.68848 11.9565L0.675781 8.56104C0.36602 8.29841 0.490651 7.79957 0.884766 7.7085L0.966797 7.6958L6.23242 7.27881C6.72239 7.24001 7.16013 6.96639 7.4082 6.55127L7.50293 6.36475L9.53125 1.54639Z" stroke="#B72828"/>
</svg>
