<svg width="48" height="49" viewBox="0 0 48 49" fill="none" xmlns="http://www.w3.org/2000/svg">
<path d="M4.5 38.1841L8.4 31.8841C10.65 28.4341 14.4 26.1841 18.6 26.1841H28.5C28.5 29.4841 25.8 32.1841 22.5 32.1841H19.5" stroke="#B72828" stroke-width="3" stroke-miterlimit="10" stroke-linecap="round" stroke-linejoin="round"/>
<path d="M24 32.1841H34.5L36.3 29.7841C37.95 27.5341 40.65 26.1841 43.5 26.1841L39.45 33.3841C37.35 37.2841 33.15 39.6841 28.8 39.6841C21.75 39.6841 14.85 41.7841 9 45.6841" stroke="#B72828" stroke-width="3" stroke-miterlimit="10" stroke-linecap="round" stroke-linejoin="round"/>
<path d="M27 15.6841C27 9.83408 31.65 5.18408 37.5 5.18408C37.5 11.0341 32.85 15.6841 27 15.6841Z" stroke="#B72828" stroke-width="3" stroke-miterlimit="10" stroke-linecap="round" stroke-linejoin="round"/>
<path d="M27 20.1841C21.15 20.1841 16.5 15.5341 16.5 9.68408C22.35 9.68408 27 14.3341 27 20.1841Z" stroke="#B72828" stroke-width="3" stroke-miterlimit="10" stroke-linecap="round" stroke-linejoin="round"/>
<path d="M27 3.68408V26.1841" stroke="#B72828" stroke-width="3" stroke-miterlimit="10" stroke-linecap="round" stroke-linejoin="round"/>
</svg>
