<svg width="48" height="49" viewBox="0 0 48 49" fill="none" xmlns="http://www.w3.org/2000/svg">
<g clip-path="url(#clip0_39_49)">
<path d="M8.8756 37.2021C8.86155 37.1314 8.84099 37.0617 8.814 36.9956C8.78701 36.9283 8.75351 36.8643 8.71458 36.8046C8.67566 36.7439 8.63031 36.6876 8.58056 36.6368C8.32977 36.3807 7.95579 36.2626 7.60439 36.3354C7.53518 36.3498 7.46706 36.3708 7.40226 36.3983C7.33745 36.4259 7.27466 36.4601 7.21527 36.4999C7.15688 36.5396 7.1007 36.586 7.05095 36.6367C7.00119 36.6875 6.95686 36.7438 6.91693 36.8046C6.878 36.8642 6.8445 36.9282 6.81751 36.9955C6.79052 37.0618 6.76996 37.1313 6.75591 37.202C6.74187 37.2726 6.73535 37.3455 6.73535 37.4172C6.73535 37.489 6.74187 37.5619 6.75591 37.6325C6.76996 37.7031 6.79052 37.7726 6.81751 37.84C6.8445 37.9063 6.878 37.9703 6.91693 38.0299C6.95695 38.0906 7.00129 38.1469 7.05095 38.1977C7.10061 38.2485 7.15688 38.2948 7.21527 38.3346C7.27475 38.3754 7.33745 38.4085 7.40226 38.4361C7.46706 38.4636 7.53518 38.4858 7.60439 38.499C7.67462 38.5133 7.74493 38.5211 7.81626 38.5211C8.10055 38.5211 8.37943 38.403 8.58056 38.1977C8.63031 38.1469 8.67566 38.0906 8.71458 38.0299C8.75351 37.9702 8.78701 37.9062 8.814 37.84C8.84099 37.7727 8.86155 37.7031 8.8756 37.6325C8.88964 37.5618 8.89717 37.4889 8.89717 37.4172C8.89717 37.3455 8.88964 37.2727 8.8756 37.2021Z" fill="#B72828"/>
<path d="M45.6353 40.6737H40.2063L41.7086 39.7318C41.7922 39.6794 41.8654 39.6164 41.9295 39.5469C43.7809 38.1631 45.0661 36.4311 45.6488 34.5246C46.3089 32.3649 46.0124 30.1501 44.7916 28.1191C42.2244 23.8487 37.5216 22.9978 32.81 25.9518C32.8029 25.9563 32.7958 25.961 32.7887 25.9656L24.7934 31.2457C24.6587 31.166 24.5169 31.0953 24.3685 31.0354L18.3911 28.6249L13.7589 19.8017C13.6643 19.6215 13.5548 19.4534 13.4342 19.2963C16.0463 18.6378 17.9894 16.2255 17.9894 13.3572V9.80821C18.054 9.65174 18.0844 9.48121 18.0734 9.30833C17.7458 4.14993 14.4894 0.684082 9.96997 0.684082C5.09849 0.684082 1.95068 4.30555 1.95068 9.91021V22.5029C1.95068 22.941 2.20111 23.3183 2.56324 23.4967V37.7156C2.56324 37.725 2.56444 37.7341 2.56462 37.7434V41.7777V47.5801C2.56462 48.1898 3.04857 48.6841 3.64562 48.6841H45.6353C46.2323 48.6841 46.7163 48.1898 46.7163 47.5801V41.7777C46.7163 41.168 46.2323 40.6737 45.6353 40.6737ZM33.9516 27.827C35.352 26.9515 40.0843 24.5092 42.949 29.2743C44.8043 32.3604 43.4982 35.228 41.4161 37.1353L37.9549 31.3776C37.9362 31.3464 37.916 31.3163 37.8945 31.2875C37.7441 31.0852 37.5291 30.9411 37.2851 30.8815C37.0063 30.8133 36.7124 30.8611 36.468 31.0145L33.1213 33.1128C33.0384 33.1648 32.9576 33.2164 32.8786 33.2676C32.8453 33.2891 32.8134 33.3104 32.7807 33.332C32.7364 33.361 32.6919 33.3902 32.6489 33.419C32.6084 33.4461 32.5693 33.473 32.5298 33.4999C32.4969 33.5223 32.4638 33.5448 32.4316 33.5671C32.3876 33.5976 32.3446 33.628 32.3018 33.6584C32.2768 33.6762 32.2516 33.6939 32.2269 33.7116C32.18 33.7453 32.1342 33.7789 32.0889 33.8123C32.0707 33.8257 32.0525 33.8391 32.0347 33.8526C31.9855 33.8892 31.9373 33.9258 31.89 33.9621C31.8783 33.9712 31.8665 33.9803 31.8548 33.9894C31.8032 34.0294 31.7526 34.0692 31.7033 34.109C31.6986 34.1128 31.6938 34.1166 31.6891 34.1204C30.3068 35.2355 29.7747 36.2387 29.5311 37.4357L28.0833 35.4597L26.2742 32.9903C26.2741 32.9901 26.2738 32.9901 26.2737 32.9898L26.2285 32.9278L33.9516 27.827ZM39.6562 38.4278L37.2307 39.9486C35.4128 41.0886 33.0253 40.5051 31.9091 38.6486C31.7964 38.4611 31.6991 38.2626 31.6178 38.0559C31.6998 37.5883 31.8341 37.1844 32.1195 36.7764C32.4822 36.2783 33.1136 35.7085 34.2524 34.9945L36.6779 33.4737L39.6562 38.4278ZM16.6732 30.0248C16.7937 30.2549 16.9905 30.434 17.2284 30.5299L23.5744 33.089C23.7243 33.1494 23.853 33.2434 23.9562 33.3589C23.9719 33.3762 23.9862 33.3943 24.0007 33.4125C24.009 33.4231 24.0177 33.4335 24.0256 33.4444C24.0341 33.4558 24.0414 33.468 24.0493 33.4798C24.0945 33.5477 24.1326 33.6203 24.1617 33.6969C24.163 33.7005 24.1646 33.7038 24.1659 33.7073C24.1848 33.7588 24.1992 33.812 24.2102 33.8661C24.2268 33.9479 24.234 34.0294 24.2321 34.1102C24.2317 34.1222 24.2309 34.1344 24.2302 34.1464C24.2286 34.1751 24.2257 34.2037 24.2217 34.2323C24.22 34.2448 24.2185 34.2572 24.2163 34.2696C24.2134 34.2856 24.209 34.3012 24.2055 34.3171C24.2001 34.3403 24.1963 34.3639 24.1895 34.3869C24.1182 34.628 23.9698 34.8307 23.7669 34.9671C23.7378 34.9866 23.7077 35.0048 23.6766 35.0216C23.4583 35.1387 23.2128 35.1728 22.9751 35.1207C22.9411 35.1132 22.9074 35.104 22.8739 35.0931L22.5019 34.9715L16.7506 33.0903C16.6742 33.0634 16.5989 33.0336 16.5242 33.0021C16.5069 32.9947 16.4898 32.9871 16.4726 32.9796C16.4076 32.9512 16.3431 32.9214 16.2798 32.8897C16.2712 32.8854 16.2624 32.8814 16.2537 32.8769C15.7828 32.6374 15.3576 32.3076 15.0048 31.9055C15.0004 31.9005 14.9955 31.8962 14.991 31.8912C14.7774 31.6449 14.5906 31.3721 14.4354 31.0764L10.5139 23.6066H12.8817C12.9126 23.6066 12.9433 23.6049 12.9737 23.6023C12.9835 23.6015 12.9931 23.6 13.0028 23.5989C13.0235 23.5965 13.0441 23.5938 13.0643 23.5902C13.0755 23.5882 13.0864 23.586 13.0974 23.5836C13.1165 23.5797 13.1354 23.5751 13.1542 23.5701C13.165 23.5672 13.1755 23.5645 13.1861 23.5613C13.2064 23.5552 13.2263 23.5483 13.2462 23.5411C13.2527 23.5386 13.2594 23.537 13.2658 23.5344L16.6732 30.0248ZM11.1785 38.5214H22.0232L22.9777 40.6737H4.72653V33.7462H13.7422C14.0708 34.0662 14.4327 34.3488 14.8222 34.59C14.8246 34.5914 14.827 34.593 14.8294 34.5944C14.9183 34.6492 15.0084 34.7018 15.1001 34.7524C15.1135 34.7598 15.1269 34.7673 15.1404 34.7746C15.2208 34.8181 15.3023 34.8598 15.3846 34.8997C15.4058 34.91 15.4267 34.9207 15.4479 34.9308C15.5249 34.9671 15.6028 35.0016 15.6816 35.0347C15.7059 35.0451 15.73 35.0561 15.7545 35.0662C15.851 35.1058 15.9487 35.1431 16.0475 35.1779C16.0516 35.1793 16.0555 35.1811 16.0596 35.1825C16.0664 35.1848 16.0731 35.1871 16.0799 35.1893L19.5163 36.3134H11.1784C10.5813 36.3134 10.0974 36.8076 10.0974 37.4174C10.0975 38.0271 10.5814 38.5214 11.1785 38.5214ZM15.8272 13.3572C15.8273 15.513 14.11 17.2669 11.9991 17.2669C11.8663 17.2669 11.7335 17.2596 11.6011 17.2453C11.5971 17.2224 11.5931 17.1999 11.5891 17.1769C11.5726 17.0797 11.5569 16.9812 11.5418 16.8816C11.5363 16.845 11.5306 16.8085 11.5253 16.7714C11.5078 16.651 11.4916 16.5289 11.4762 16.4051C11.4737 16.3854 11.4711 16.3663 11.4687 16.3465C11.4511 16.2008 11.4348 16.053 11.42 15.9026C11.4196 15.8991 11.4193 15.8956 11.419 15.8921C11.4038 15.7377 11.3902 15.5809 11.378 15.4216C11.3779 15.4203 11.3779 15.419 11.3778 15.4177C11.3655 15.2566 11.3547 15.093 11.3455 14.9269C11.3455 14.9262 11.3455 14.9256 11.3454 14.9249C11.3361 14.7584 11.3284 14.5896 11.3222 14.4184C11.3222 14.4173 11.3221 14.4163 11.3221 14.4153C11.316 14.2443 11.3113 14.0708 11.3083 13.8951C11.3083 13.8941 11.3083 13.8931 11.3083 13.892C11.3052 13.716 11.3036 13.5377 11.3036 13.3571V10.4838H15.8272L15.8272 13.3572ZM4.11259 9.91021C4.11259 8.26386 4.53504 2.89199 9.96997 2.89199C13.53 2.89199 15.2574 5.58064 15.7679 8.27568H10.2229C9.92434 8.27568 9.65409 8.39924 9.45847 8.59902C9.26286 8.7988 9.14187 9.0748 9.14187 9.37968V13.3571C9.14187 17.4112 9.84577 19.8459 10.6899 21.3988H8.71042H4.11259V9.91021ZM4.72506 23.6069H8.06032L12.2243 31.5383H4.72506V23.6069ZM4.72653 46.476V42.8816H23.9567L24.3139 43.6871C24.8544 44.9058 25.9494 45.7765 27.3971 46.1387C27.4161 46.1435 27.4351 46.1476 27.4542 46.1512L29.1416 46.4759L4.72653 46.476ZM37.2978 45.5424C37.2055 45.6205 37.0104 45.7436 36.7364 45.6906L27.8853 43.9875C27.2065 43.8121 26.6865 43.4614 26.3944 42.9871C26.3527 42.9193 26.3157 42.849 26.2835 42.7763L25.6387 41.3223C25.6387 41.3223 25.6387 41.3222 25.6386 41.3222L23.8479 37.2842C23.8576 37.2821 23.8672 37.279 23.8769 37.2769C23.9007 37.2715 23.9244 37.2665 23.9481 37.2606C23.9614 37.2574 23.9746 37.2532 23.9878 37.2499C24.0031 37.2457 24.0185 37.2416 24.0339 37.2373C24.0466 37.2337 24.0593 37.2306 24.072 37.2269C24.088 37.2221 24.1041 37.2171 24.1202 37.212C24.1393 37.206 24.1585 37.1995 24.1775 37.1932C24.2051 37.1841 24.2328 37.175 24.2604 37.1648C24.2724 37.1605 24.2841 37.1556 24.2961 37.1512C24.3145 37.1443 24.3331 37.1371 24.3514 37.1299C24.3844 37.1167 24.4172 37.1027 24.45 37.0883C24.4638 37.0822 24.4776 37.0767 24.4913 37.0704C24.5006 37.0662 24.5098 37.0619 24.5191 37.0576C24.574 37.032 24.6285 37.0052 24.6823 36.9762C24.7342 36.9484 24.785 36.919 24.8349 36.8886C24.8517 36.8785 24.8679 36.8675 24.8844 36.8571C24.9173 36.8361 24.95 36.8152 24.982 36.7934C25.0008 36.7805 25.0192 36.7671 25.0378 36.7537C25.0668 36.733 25.0954 36.712 25.1236 36.6904C25.1424 36.6759 25.1609 36.6613 25.1794 36.6465C25.2068 36.6245 25.2336 36.6021 25.2602 36.5793C25.2778 36.5642 25.2954 36.5492 25.3126 36.5336C25.34 36.5091 25.3666 36.4839 25.3929 36.4585C25.4082 36.4438 25.4236 36.4295 25.4386 36.4146C25.4698 36.3833 25.5001 36.3512 25.53 36.3186C25.539 36.3088 25.5484 36.2994 25.5573 36.2895C25.5958 36.2465 25.6332 36.2026 25.6693 36.1577C25.6781 36.1467 25.6863 36.1353 25.695 36.1242C25.7219 36.0898 25.7486 36.0548 25.7742 36.0193C25.7774 36.0148 25.781 36.0105 25.7842 36.0059L26.282 36.6854L28.5685 41.8416C28.7065 42.153 28.9782 42.3815 29.3039 42.4603L37.0202 44.3284C37.329 44.4031 37.5448 44.6817 37.5448 45.006C37.5444 45.291 37.3899 45.4643 37.2978 45.5424ZM44.5544 46.4761H39.3162C39.3228 46.4647 39.3283 46.4528 39.3347 46.4413C39.3537 46.4072 39.372 46.3729 39.3897 46.3381C39.3994 46.319 39.4089 46.2997 39.4181 46.2804C39.4352 46.2448 39.4514 46.2088 39.4669 46.1723C39.4747 46.1542 39.4827 46.1362 39.4901 46.118C39.5088 46.0719 39.5262 46.0251 39.5426 45.978C39.5455 45.9696 39.5488 45.9613 39.5518 45.953C39.5705 45.8973 39.5873 45.8409 39.6028 45.784C39.6073 45.7673 39.611 45.7504 39.6152 45.7336C39.6255 45.6928 39.6352 45.652 39.6438 45.6107C39.6481 45.5897 39.6519 45.5686 39.6559 45.5474C39.6629 45.5092 39.6693 45.4708 39.6748 45.4322C39.6779 45.4105 39.6809 45.389 39.6837 45.3673C39.6886 45.3264 39.6926 45.2854 39.6958 45.2442C39.6973 45.2252 39.6993 45.2063 39.7005 45.1872C39.7042 45.1271 39.7065 45.067 39.7065 45.0064C39.7065 44.9306 39.7027 44.8557 39.6972 44.7813C39.6961 44.7663 39.695 44.7513 39.6937 44.7363C39.6872 44.6644 39.6785 44.5933 39.667 44.523C39.665 44.5101 39.6623 44.4976 39.6601 44.4848C39.6484 44.4185 39.6348 44.3528 39.6187 44.288C39.6168 44.28 39.6151 44.2718 39.6131 44.2639C39.5954 44.1949 39.5748 44.1271 39.5523 44.0601C39.5475 44.0458 39.5426 44.0316 39.5376 44.0173C39.5143 43.9509 39.4891 43.8855 39.4612 43.8214C39.4577 43.8133 39.4538 43.8056 39.4503 43.7976C39.4236 43.7378 39.3949 43.6793 39.3644 43.6218C39.3588 43.6112 39.3534 43.6004 39.3477 43.5897C39.3147 43.5291 39.2794 43.4701 39.2423 43.4121C39.2345 43.4001 39.2265 43.3882 39.2187 43.3762C39.1796 43.3174 39.1393 43.2596 39.0962 43.2039C39.0955 43.2029 39.0945 43.202 39.0938 43.2009C39.0511 43.146 39.006 43.093 38.9594 43.0414C38.9501 43.031 38.9408 43.0205 38.9313 43.0102C38.8906 42.9662 38.849 42.923 38.8055 42.8817H44.5544V46.4761Z" fill="#B72828"/>
</g>
<defs>
<clipPath id="clip0_39_49">
<rect width="47" height="48" fill="white" transform="translate(0.833496 0.684082)"/>
</clipPath>
</defs>
</svg>
