<svg width="64" height="65" viewBox="0 0 64 65" fill="none" xmlns="http://www.w3.org/2000/svg">
<rect y="0.684082" width="64" height="64" rx="32" fill="#FFFEF7"/>
<path fill-rule="evenodd" clip-rule="evenodd" d="M5.33301 32.6842C5.33301 17.9566 17.2721 6.01758 31.9997 6.01758C39.0721 6.01758 45.8549 8.8271 50.8559 13.828C55.8568 18.829 58.6663 25.6118 58.6663 32.6842C58.6663 47.4118 46.7273 59.3509 31.9997 59.3509C17.2721 59.3509 5.33301 47.4118 5.33301 32.6842ZM27.1198 44.0976L42.6664 34.3909C43.2482 34.0183 43.6001 33.3751 43.6001 32.6842C43.6001 31.9934 43.2482 31.3501 42.6664 30.9776L27.0664 21.2709C26.452 20.8835 25.6758 20.8597 25.0388 21.2086C24.4018 21.5576 24.004 22.2245 23.9998 22.9509V42.4176C23.9912 43.1616 24.3963 43.8489 25.0514 44.2016C25.7065 44.5544 26.5033 44.5143 27.1198 44.0976Z" fill="#6E0000"/>
</svg>
