<svg width="49" height="49" viewBox="0 0 49 49" fill="none" xmlns="http://www.w3.org/2000/svg">
<g clip-path="url(#clip0_39_64)">
<path d="M23.8997 27.3276C24.6908 27.2439 25.2639 26.5351 25.1804 25.7442C25.0967 24.9532 24.3876 24.3801 23.5968 24.4636L23.8997 27.3276ZM7.29601 10.9447L8.7354 10.9868C8.7357 10.9759 8.7359 10.9651 8.73597 10.9543L7.29601 10.9447ZM8.73409 9.51621L8.73405 10.9563L8.75005 10.9561L8.73409 9.51621ZM17.066 13.3926C17.7308 13.8291 18.6236 13.6442 19.0601 12.9794C19.4967 12.3147 19.3117 11.4219 18.647 10.9853L17.066 13.3926ZM8.73411 8.07621C7.97412 8.07619 7.24496 8.37678 6.70577 8.91237L8.73597 10.9543L8.73405 10.9563L8.73411 8.07621ZM6.70577 8.91237C6.16657 9.44797 5.86112 10.1751 5.85605 10.9351L8.73597 10.9543L6.70577 8.91237ZM5.85663 10.9026C5.56602 20.8422 14.3463 28.3387 23.8997 27.3276L23.5968 24.4636C15.67 25.3024 8.49887 19.0763 8.7354 10.9868L5.85663 10.9026ZM18.647 10.9853C15.7026 9.05159 12.2461 8.03719 8.71814 8.07628L8.75005 10.9561C11.7049 10.9234 14.6 11.773 17.066 13.3926L18.647 10.9853Z" fill="#B72828"/>
<path d="M28.5459 11.1688C27.8883 11.6161 27.7178 12.5117 28.1652 13.1693C28.6124 13.8269 29.508 13.9974 30.1656 13.5502L28.5459 11.1688ZM38.687 9.51595L38.6789 10.956H38.6851L38.687 9.51595ZM40.1212 10.9444L38.6812 10.9521C38.6814 10.9632 38.6816 10.9743 38.6818 10.9854L40.1212 10.9444ZM35.9663 21.8174L36.9465 22.8725C36.969 22.8515 36.9907 22.83 37.0116 22.8079L35.9663 21.8174ZM24.1157 24.4789C23.3235 24.4075 22.6237 24.9919 22.5523 25.7839C22.481 26.5761 23.0653 27.276 23.8575 27.3472L24.1157 24.4789ZM30.1656 13.5502C32.6753 11.8433 35.644 10.9387 38.6789 10.956L38.6952 8.07597C35.077 8.05537 31.5379 9.13389 28.5459 11.1688L30.1656 13.5502ZM38.6851 10.956C38.6841 10.956 38.6831 10.9556 38.6824 10.9548L40.7149 8.91428C40.1767 8.37832 39.4485 8.07697 38.6889 8.07595L38.6851 10.956ZM38.6824 10.9548C38.6818 10.9541 38.6812 10.9532 38.6812 10.9521L41.5612 10.9367C41.5572 10.1773 41.2529 9.45023 40.7149 8.91428L38.6824 10.9548ZM38.6818 10.9854C38.7333 12.7926 38.4276 14.5922 37.7823 16.281L40.4726 17.309C41.2533 15.2662 41.6229 13.0894 41.5606 10.9034L38.6818 10.9854ZM37.7823 16.281C37.137 17.9698 36.1647 19.5146 34.9211 20.8269L37.0116 22.8079C38.5159 21.2205 39.6919 19.3518 40.4726 17.309L37.7823 16.281ZM34.9862 20.7624C33.5093 22.1346 31.7556 23.1743 29.8431 23.8117L30.7535 26.5441C33.0566 25.7765 35.1682 24.5246 36.9465 22.8725L34.9862 20.7624ZM29.8431 23.8117C27.9995 24.4263 26.0495 24.6531 24.1157 24.4789L23.8575 27.3472C26.1861 27.5569 28.5338 27.2838 30.7535 26.5441L29.8431 23.8117Z" fill="#B72828"/>
<path d="M39.5494 29.8079C39.5624 29.0126 38.9284 28.3575 38.1332 28.3444C37.3381 28.3314 36.6828 28.9656 36.6697 29.7606L39.5494 29.8079ZM10.7504 29.7608C10.7375 28.9656 10.0823 28.3316 9.28715 28.3444C8.49196 28.3575 7.85784 29.0126 7.8708 29.8077L10.7504 29.7608ZM36.6697 29.7606C36.6511 30.9073 35.6637 32.329 33.2128 33.5449C30.8475 34.7185 27.492 35.4841 23.7101 35.4841V38.3641C27.8408 38.3641 31.6526 37.5341 34.4929 36.1249C37.2475 34.7582 39.5037 32.6099 39.5494 29.8079L36.6697 29.7606ZM23.7101 35.4841C19.9277 35.4841 16.572 34.7202 14.207 33.5476C11.7571 32.333 10.7692 30.9115 10.7504 29.7608L7.8708 29.8077C7.91652 32.6134 10.1721 34.7617 12.9277 36.1279C15.7681 37.5362 19.5798 38.3641 23.7101 38.3641V35.4841Z" fill="#B72828"/>
<path d="M45.307 29.7183H46.747V29.7043L45.307 29.7183ZM2.10699 29.724L0.666992 29.7106V29.724H2.10699ZM5.09624 24.7718C5.54233 24.1134 5.37024 23.2179 4.71184 22.7719C4.05345 22.3259 3.15808 22.4979 2.71198 23.1563L5.09624 24.7718ZM44.7316 23.2001C44.2884 22.5398 43.3937 22.3639 42.7334 22.807C42.0731 23.2504 41.8971 24.1449 42.3404 24.8052L44.7316 23.2001ZM43.867 29.7183C43.867 33.0633 41.8331 36.268 38.1815 38.7023C34.5402 41.13 29.4269 42.6783 23.707 42.6783V45.5583C29.9161 45.5583 35.6027 43.8829 39.7791 41.0987C43.9453 38.3212 46.747 34.3259 46.747 29.7183H43.867ZM23.707 42.6783C17.9869 42.6783 12.8734 41.1313 9.23209 38.705C5.58075 36.2722 3.54699 33.0689 3.54699 29.724H0.666992C0.666992 34.3318 3.46875 38.3256 7.63517 41.1018C11.8116 43.8844 17.4981 45.5583 23.707 45.5583V42.6783ZM3.54693 29.7375C3.5635 27.9659 4.10245 26.2385 5.09624 24.7718L2.71198 23.1563C1.40027 25.0922 0.688867 27.3722 0.666992 29.7106L3.54693 29.7375ZM42.3404 24.8052C43.319 26.2632 43.8499 27.9759 43.867 29.7323L46.747 29.7043C46.7241 27.3855 46.0233 25.1247 44.7316 23.2001L42.3404 24.8052Z" fill="#B72828"/>
<path d="M23.7484 25.8955L22.8427 27.0151C23.3709 27.4423 24.1258 27.4423 24.654 27.0151L23.7484 25.8955ZM17.9883 14.3755L16.5489 14.3363C16.548 14.367 16.5482 14.3977 16.5493 14.4284L17.9883 14.3755ZM22.7615 3.72718L23.7486 4.77566C23.7557 4.76903 23.7626 4.76233 23.7695 4.75556L22.7615 3.72718ZM24.7372 3.72718L23.7292 4.75556C23.7359 4.7622 23.7417 4.76915 23.7486 4.77566L24.7372 3.72718ZM29.5084 14.3755L30.9474 14.4284C30.9486 14.3976 30.9486 14.3669 30.9478 14.3362L29.5084 14.3755ZM23.7695 4.75556C23.7641 4.76084 23.7568 4.76379 23.7493 4.76379V1.88379C23.003 1.88379 22.2865 2.17641 21.7535 2.69883L23.7695 4.75556ZM23.7493 4.76379C23.7418 4.76379 23.7345 4.76084 23.7292 4.75556L25.7452 2.69883C25.2122 2.17641 24.4956 1.88379 23.7493 1.88379V4.76379ZM19.4278 14.4147C19.5264 10.7942 21.1114 7.25833 23.7486 4.77566L21.7744 2.67872C18.579 5.68697 16.6684 9.94929 16.5489 14.3363L19.4278 14.4147ZM24.654 24.776C21.5098 22.2324 19.5758 18.3642 19.4274 14.3227L16.5493 14.4284C16.7283 19.3017 19.0513 23.9479 22.8427 27.0151L24.654 24.776ZM28.0693 14.3227C27.9209 18.3642 25.9869 22.2324 22.8427 24.776L24.654 27.0151C28.4453 23.9479 30.7685 19.3017 30.9474 14.4284L28.0693 14.3227ZM23.7486 4.77566C26.3845 7.25925 27.9699 10.7945 28.0689 14.4149L30.9478 14.3362C30.828 9.94981 28.9184 5.68814 25.7246 2.6791L23.7486 4.77566Z" fill="#B72828"/>
</g>
<defs>
<clipPath id="clip0_39_64">
<rect width="48" height="48" fill="white" transform="translate(0.666992 0.684082)"/>
</clipPath>
</defs>
</svg>
